<svg width="41" height="41" viewBox="0 0 41 41" fill="none" xmlns="http://www.w3.org/2000/svg">
<path d="M27.2701 20.0613L27.2833 20.069L27.297 20.0758C27.4176 20.1361 27.5331 20.3101 27.5331 20.4999C27.5331 20.6488 27.4515 20.812 27.255 20.9472L17.535 26.5745C17.5347 26.5747 17.5343 26.5749 17.534 26.5751C17.3607 26.6737 17.1857 26.6634 16.9817 26.5614C16.8611 26.5011 16.7456 26.3271 16.7456 26.1374V14.8624C16.7456 14.7105 16.8304 14.5438 17.0355 14.4071C17.175 14.3141 17.3662 14.3141 17.5058 14.4071L17.5189 14.4159L17.5326 14.4238L27.2701 20.0613ZM39.9625 20.5C39.9625 9.76886 31.2311 1.0375 20.5 1.0375C9.76886 1.0375 1.0375 9.76886 1.0375 20.5C1.0375 31.2311 9.76886 39.9625 20.5 39.9625C31.2311 39.9625 39.9625 31.2311 39.9625 20.5ZM0.5 20.5C0.5 9.44989 9.44989 0.5 20.5 0.5C31.5501 0.5 40.5 9.44989 40.5 20.5C40.5 31.5501 31.5501 40.5 20.5 40.5C9.44989 40.5 0.5 31.5501 0.5 20.5Z" fill="white" stroke="white"/>
</svg>
